<mxfile host="app.diagrams.net" modified="2021-09-30T20:22:42.308Z" agent="5.0 (Windows NT 10.0; Win64; x64) AppleWebKit/537.36 (KHTML, like Gecko) Chrome/94.0.4606.61 Safari/537.36" etag="vF782OnbQMo7SGR62_-Z" version="15.4.0" type="github">
  <diagram id="f6o2FOGRASFLj1vxCPKE" name="Page-1">
    <mxGraphModel dx="1422" dy="734" grid="1" gridSize="10" guides="1" tooltips="1" connect="1" arrows="1" fold="1" page="1" pageScale="1" pageWidth="827" pageHeight="1169" math="0" shadow="0">
      <root>
        <mxCell id="0" />
        <mxCell id="1" parent="0" />
        <mxCell id="o_KLARVnYL17PYb3-e0V-1" value="" style="html=1;verticalLabelPosition=bottom;align=center;labelBackgroundColor=#ffffff;verticalAlign=top;strokeWidth=2;strokeColor=#0080F0;shadow=0;dashed=0;shape=mxgraph.ios7.icons.cloud;" parent="1" vertex="1">
          <mxGeometry x="438" y="270" width="61" height="50" as="geometry" />
        </mxCell>
        <mxCell id="o_KLARVnYL17PYb3-e0V-2" value="&lt;div&gt;WAN&lt;/div&gt;&lt;div&gt;500/500&lt;/div&gt;" style="text;html=1;align=center;verticalAlign=middle;resizable=0;points=[];autosize=1;strokeColor=none;fillColor=none;" parent="1" vertex="1">
          <mxGeometry x="436" y="290" width="60" height="30" as="geometry" />
        </mxCell>
        <mxCell id="o_KLARVnYL17PYb3-e0V-3" style="edgeStyle=orthogonalEdgeStyle;rounded=0;orthogonalLoop=1;jettySize=auto;html=1;" parent="1" source="o_KLARVnYL17PYb3-e0V-4" target="o_KLARVnYL17PYb3-e0V-11" edge="1">
          <mxGeometry relative="1" as="geometry" />
        </mxCell>
        <mxCell id="o_KLARVnYL17PYb3-e0V-4" value="&lt;div style=&quot;font-size: 14px&quot;&gt;&lt;font style=&quot;font-size: 14px&quot;&gt;USG-PRO-4&lt;/font&gt;&lt;/div&gt;&lt;div style=&quot;font-size: 14px&quot;&gt;&lt;font style=&quot;font-size: 14px&quot;&gt;&lt;br&gt;&lt;/font&gt;&lt;/div&gt;&lt;div style=&quot;font-size: 14px&quot;&gt;&lt;font style=&quot;font-size: 14px&quot;&gt;&lt;br&gt;&lt;/font&gt;&lt;/div&gt;&lt;div style=&quot;font-size: 14px&quot;&gt;&lt;font style=&quot;font-size: 14px&quot;&gt;195.18.0.1&lt;br&gt;&lt;/font&gt;&lt;/div&gt;" style="shape=mxgraph.cisco.routers.router;sketch=0;html=1;pointerEvents=1;dashed=0;fillColor=#036897;strokeColor=#ffffff;strokeWidth=2;verticalLabelPosition=bottom;verticalAlign=top;align=center;outlineConnect=0;" parent="1" vertex="1">
          <mxGeometry x="436" y="340" width="65" height="40" as="geometry" />
        </mxCell>
        <mxCell id="o_KLARVnYL17PYb3-e0V-5" style="edgeStyle=orthogonalEdgeStyle;rounded=0;orthogonalLoop=1;jettySize=auto;html=1;" parent="1" source="o_KLARVnYL17PYb3-e0V-11" target="o_KLARVnYL17PYb3-e0V-15" edge="1">
          <mxGeometry relative="1" as="geometry" />
        </mxCell>
        <mxCell id="o_KLARVnYL17PYb3-e0V-6" style="edgeStyle=orthogonalEdgeStyle;rounded=0;orthogonalLoop=1;jettySize=auto;html=1;entryX=1;entryY=0;entryDx=0;entryDy=0;entryPerimeter=0;" parent="1" source="o_KLARVnYL17PYb3-e0V-11" target="o_KLARVnYL17PYb3-e0V-19" edge="1">
          <mxGeometry relative="1" as="geometry" />
        </mxCell>
        <mxCell id="o_KLARVnYL17PYb3-e0V-7" style="edgeStyle=orthogonalEdgeStyle;rounded=0;orthogonalLoop=1;jettySize=auto;html=1;" parent="1" source="o_KLARVnYL17PYb3-e0V-11" target="o_KLARVnYL17PYb3-e0V-21" edge="1">
          <mxGeometry relative="1" as="geometry" />
        </mxCell>
        <mxCell id="o_KLARVnYL17PYb3-e0V-8" style="edgeStyle=orthogonalEdgeStyle;rounded=0;orthogonalLoop=1;jettySize=auto;html=1;entryX=0.848;entryY=1.01;entryDx=0;entryDy=0;entryPerimeter=0;" parent="1" source="o_KLARVnYL17PYb3-e0V-11" target="o_KLARVnYL17PYb3-e0V-23" edge="1">
          <mxGeometry relative="1" as="geometry" />
        </mxCell>
        <mxCell id="o_KLARVnYL17PYb3-e0V-9" style="edgeStyle=orthogonalEdgeStyle;rounded=0;orthogonalLoop=1;jettySize=auto;html=1;entryX=0;entryY=0.5;entryDx=0;entryDy=0;entryPerimeter=0;" parent="1" source="o_KLARVnYL17PYb3-e0V-11" target="o_KLARVnYL17PYb3-e0V-13" edge="1">
          <mxGeometry relative="1" as="geometry" />
        </mxCell>
        <mxCell id="o_KLARVnYL17PYb3-e0V-10" style="edgeStyle=orthogonalEdgeStyle;rounded=0;orthogonalLoop=1;jettySize=auto;html=1;entryX=0;entryY=0.5;entryDx=0;entryDy=0;entryPerimeter=0;" parent="1" source="o_KLARVnYL17PYb3-e0V-11" target="o_KLARVnYL17PYb3-e0V-17" edge="1">
          <mxGeometry relative="1" as="geometry" />
        </mxCell>
        <mxCell id="o_KLARVnYL17PYb3-e0V-11" value="&lt;div style=&quot;font-size: 15px&quot;&gt;&lt;font style=&quot;font-size: 15px&quot;&gt;&lt;span class=&quot;product-current-sku&quot;&gt;USW-Enterprise-48-PoE&lt;br&gt;&lt;/span&gt;&lt;/font&gt;&lt;/div&gt;&lt;div style=&quot;font-size: 15px&quot;&gt;&lt;br&gt;&lt;/div&gt;&lt;span style=&quot;font-size: 14px&quot;&gt;195.18.0.2/23&lt;/span&gt;&lt;font style=&quot;font-size: 15px&quot;&gt;&lt;br&gt;&lt;/font&gt;" style="shape=mxgraph.cisco.switches.workgroup_switch;sketch=0;html=1;pointerEvents=1;dashed=0;fillColor=#036897;strokeColor=#ffffff;strokeWidth=2;verticalLabelPosition=bottom;verticalAlign=top;align=center;outlineConnect=0;" parent="1" vertex="1">
          <mxGeometry x="430" y="700" width="77" height="40" as="geometry" />
        </mxCell>
        <mxCell id="o_KLARVnYL17PYb3-e0V-12" value="" style="edgeStyle=orthogonalEdgeStyle;rounded=0;orthogonalLoop=1;jettySize=auto;html=1;" parent="1" source="o_KLARVnYL17PYb3-e0V-13" target="o_KLARVnYL17PYb3-e0V-27" edge="1">
          <mxGeometry relative="1" as="geometry" />
        </mxCell>
        <mxCell id="o_KLARVnYL17PYb3-e0V-13" value="&lt;span class=&quot;product-current-sku&quot;&gt;USW-Enterprise-48-PoE&lt;br&gt;195.18.0.3/23&lt;br&gt;&lt;/span&gt;" style="shape=mxgraph.cisco.switches.workgroup_switch;sketch=0;html=1;pointerEvents=1;dashed=0;fillColor=#036897;strokeColor=#ffffff;strokeWidth=2;verticalLabelPosition=bottom;verticalAlign=top;align=center;outlineConnect=0;" parent="1" vertex="1">
          <mxGeometry x="680" y="560" width="77" height="40" as="geometry" />
        </mxCell>
        <mxCell id="o_KLARVnYL17PYb3-e0V-14" value="" style="edgeStyle=orthogonalEdgeStyle;rounded=0;orthogonalLoop=1;jettySize=auto;html=1;" parent="1" target="o_KLARVnYL17PYb3-e0V-28" edge="1">
          <mxGeometry relative="1" as="geometry">
            <mxPoint x="760" y="720" as="sourcePoint" />
          </mxGeometry>
        </mxCell>
        <mxCell id="o_KLARVnYL17PYb3-e0V-15" value="&lt;span class=&quot;product-current-sku&quot;&gt;USW-Enterprise-48-PoE&lt;br&gt;195.18.0.4/23&lt;br&gt;&lt;/span&gt;" style="shape=mxgraph.cisco.switches.workgroup_switch;sketch=0;html=1;pointerEvents=1;dashed=0;fillColor=#036897;strokeColor=#ffffff;strokeWidth=2;verticalLabelPosition=bottom;verticalAlign=top;align=center;outlineConnect=0;" parent="1" vertex="1">
          <mxGeometry x="680" y="700" width="77" height="40" as="geometry" />
        </mxCell>
        <mxCell id="o_KLARVnYL17PYb3-e0V-16" value="" style="edgeStyle=orthogonalEdgeStyle;rounded=0;orthogonalLoop=1;jettySize=auto;html=1;" parent="1" source="o_KLARVnYL17PYb3-e0V-17" target="o_KLARVnYL17PYb3-e0V-29" edge="1">
          <mxGeometry relative="1" as="geometry" />
        </mxCell>
        <mxCell id="o_KLARVnYL17PYb3-e0V-17" value="&lt;span class=&quot;product-current-sku&quot;&gt;USW-Enterprise-48-PoE&lt;br&gt;195.18.0.5/23&lt;br&gt;&lt;/span&gt;" style="shape=mxgraph.cisco.switches.workgroup_switch;sketch=0;html=1;pointerEvents=1;dashed=0;fillColor=#036897;strokeColor=#ffffff;strokeWidth=2;verticalLabelPosition=bottom;verticalAlign=top;align=center;outlineConnect=0;" parent="1" vertex="1">
          <mxGeometry x="680" y="840" width="77" height="40" as="geometry" />
        </mxCell>
        <mxCell id="o_KLARVnYL17PYb3-e0V-18" value="" style="edgeStyle=orthogonalEdgeStyle;rounded=0;orthogonalLoop=1;jettySize=auto;html=1;" parent="1" source="o_KLARVnYL17PYb3-e0V-19" target="o_KLARVnYL17PYb3-e0V-24" edge="1">
          <mxGeometry relative="1" as="geometry" />
        </mxCell>
        <mxCell id="o_KLARVnYL17PYb3-e0V-19" value="USW-Enterprise-48-PoE&lt;br&gt;195.18.1.1/23" style="shape=mxgraph.cisco.switches.workgroup_switch;sketch=0;html=1;pointerEvents=1;dashed=0;fillColor=#036897;strokeColor=#ffffff;strokeWidth=2;verticalLabelPosition=bottom;verticalAlign=top;align=center;outlineConnect=0;" parent="1" vertex="1">
          <mxGeometry x="180" y="560" width="77" height="40" as="geometry" />
        </mxCell>
        <mxCell id="o_KLARVnYL17PYb3-e0V-20" value="" style="edgeStyle=orthogonalEdgeStyle;rounded=0;orthogonalLoop=1;jettySize=auto;html=1;" parent="1" source="o_KLARVnYL17PYb3-e0V-21" target="o_KLARVnYL17PYb3-e0V-25" edge="1">
          <mxGeometry relative="1" as="geometry" />
        </mxCell>
        <mxCell id="o_KLARVnYL17PYb3-e0V-21" value="USW-Enterprise-48-PoE&lt;br&gt;195.18.1.2/23" style="shape=mxgraph.cisco.switches.workgroup_switch;sketch=0;html=1;pointerEvents=1;dashed=0;fillColor=#036897;strokeColor=#ffffff;strokeWidth=2;verticalLabelPosition=bottom;verticalAlign=top;align=center;outlineConnect=0;" parent="1" vertex="1">
          <mxGeometry x="180" y="700" width="77" height="40" as="geometry" />
        </mxCell>
        <mxCell id="o_KLARVnYL17PYb3-e0V-22" value="" style="edgeStyle=orthogonalEdgeStyle;rounded=0;orthogonalLoop=1;jettySize=auto;html=1;" parent="1" source="o_KLARVnYL17PYb3-e0V-23" target="o_KLARVnYL17PYb3-e0V-26" edge="1">
          <mxGeometry relative="1" as="geometry" />
        </mxCell>
        <mxCell id="o_KLARVnYL17PYb3-e0V-23" value="&lt;span class=&quot;product-current-sku&quot;&gt;USW-Enterprise-48-PoE&lt;br&gt;195.18.1.3&lt;span&gt;/23&lt;/span&gt;&lt;br&gt;&lt;br&gt;&lt;/span&gt;" style="shape=mxgraph.cisco.switches.workgroup_switch;sketch=0;html=1;pointerEvents=1;dashed=0;fillColor=#036897;strokeColor=#ffffff;strokeWidth=2;verticalLabelPosition=bottom;verticalAlign=top;align=center;outlineConnect=0;" parent="1" vertex="1">
          <mxGeometry x="180" y="840" width="77" height="40" as="geometry" />
        </mxCell>
        <mxCell id="o_KLARVnYL17PYb3-e0V-24" value="43 stacje&lt;br&gt;195.18.1.4/23&lt;br&gt;-&lt;br&gt;195.18.1.46/23" style="pointerEvents=1;shadow=0;dashed=0;html=1;strokeColor=none;fillColor=#4495D1;labelPosition=center;verticalLabelPosition=bottom;verticalAlign=top;align=center;outlineConnect=0;shape=mxgraph.veeam.2d.workstation;" parent="1" vertex="1">
          <mxGeometry x="40" y="548" width="76.4" height="51.2" as="geometry" />
        </mxCell>
        <mxCell id="o_KLARVnYL17PYb3-e0V-25" value="43 stacje&lt;br&gt;195.18.1.47/23&lt;br&gt;-&lt;br&gt;195.18.1.89/23" style="pointerEvents=1;shadow=0;dashed=0;html=1;strokeColor=none;fillColor=#4495D1;labelPosition=center;verticalLabelPosition=bottom;verticalAlign=top;align=center;outlineConnect=0;shape=mxgraph.veeam.2d.workstation;" parent="1" vertex="1">
          <mxGeometry x="40" y="688.8" width="76.4" height="51.2" as="geometry" />
        </mxCell>
        <mxCell id="o_KLARVnYL17PYb3-e0V-26" value="43 stacje&lt;br&gt;195.18.1.90/23&lt;br&gt;-&lt;br&gt;195.18.1.132/23" style="pointerEvents=1;shadow=0;dashed=0;html=1;strokeColor=none;fillColor=#4495D1;labelPosition=center;verticalLabelPosition=bottom;verticalAlign=top;align=center;outlineConnect=0;shape=mxgraph.veeam.2d.workstation;" parent="1" vertex="1">
          <mxGeometry x="40" y="828.8" width="76.4" height="51.2" as="geometry" />
        </mxCell>
        <mxCell id="o_KLARVnYL17PYb3-e0V-27" value="43 stacje&lt;br&gt;195.18.0.6/23&lt;br&gt;-&lt;br&gt;195.18.0.48/23" style="pointerEvents=1;shadow=0;dashed=0;html=1;strokeColor=none;fillColor=#4495D1;labelPosition=center;verticalLabelPosition=bottom;verticalAlign=top;align=center;outlineConnect=0;shape=mxgraph.veeam.2d.workstation;" parent="1" vertex="1">
          <mxGeometry x="860" y="548.8" width="76.4" height="51.2" as="geometry" />
        </mxCell>
        <mxCell id="o_KLARVnYL17PYb3-e0V-28" value="43 stacje&lt;br&gt;195.18.0.49/23&lt;br&gt;-&lt;br&gt;195.18.0.91/23" style="pointerEvents=1;shadow=0;dashed=0;html=1;strokeColor=none;fillColor=#4495D1;labelPosition=center;verticalLabelPosition=bottom;verticalAlign=top;align=center;outlineConnect=0;shape=mxgraph.veeam.2d.workstation;" parent="1" vertex="1">
          <mxGeometry x="860" y="688.8" width="76.4" height="51.2" as="geometry" />
        </mxCell>
        <mxCell id="o_KLARVnYL17PYb3-e0V-29" value="43 stacje&lt;br&gt;195.18.0.92/23&lt;br&gt;-&lt;br&gt;195.18.0.143/23" style="pointerEvents=1;shadow=0;dashed=0;html=1;strokeColor=none;fillColor=#4495D1;labelPosition=center;verticalLabelPosition=bottom;verticalAlign=top;align=center;outlineConnect=0;shape=mxgraph.veeam.2d.workstation;" parent="1" vertex="1">
          <mxGeometry x="860" y="828.8" width="76.4" height="51.2" as="geometry" />
        </mxCell>
        <mxCell id="o_KLARVnYL17PYb3-e0V-30" value="89.151.36.77" style="text;html=1;align=center;verticalAlign=middle;resizable=0;points=[];autosize=1;strokeColor=none;fillColor=none;" parent="1" vertex="1">
          <mxGeometry x="425" y="250" width="90" height="20" as="geometry" />
        </mxCell>
        <mxCell id="o_KLARVnYL17PYb3-e0V-31" value="&lt;font style=&quot;font-size: 14px&quot;&gt;Vlan 20&lt;br&gt;&lt;/font&gt;" style="text;html=1;align=center;verticalAlign=middle;resizable=0;points=[];autosize=1;strokeColor=none;fillColor=none;" parent="1" vertex="1">
          <mxGeometry x="345" y="720" width="60" height="20" as="geometry" />
        </mxCell>
        <mxCell id="o_KLARVnYL17PYb3-e0V-32" value="Vlan 10" style="text;html=1;align=center;verticalAlign=middle;resizable=0;points=[];autosize=1;strokeColor=none;fillColor=none;" parent="1" vertex="1">
          <mxGeometry x="510" y="720" width="60" height="20" as="geometry" />
        </mxCell>
        <mxCell id="o_KLARVnYL17PYb3-e0V-37" value="0.X" style="text;html=1;align=center;verticalAlign=middle;resizable=0;points=[];autosize=1;strokeColor=none;fillColor=none;" parent="1" vertex="1">
          <mxGeometry x="615" y="490" width="30" height="20" as="geometry" />
        </mxCell>
        <mxCell id="o_KLARVnYL17PYb3-e0V-38" value="&lt;div&gt;1.X&lt;/div&gt;&lt;div&gt;&lt;br&gt;&lt;/div&gt;" style="text;html=1;align=center;verticalAlign=middle;resizable=0;points=[];autosize=1;strokeColor=none;fillColor=none;" parent="1" vertex="1">
          <mxGeometry x="285" y="475" width="30" height="30" as="geometry" />
        </mxCell>
      </root>
    </mxGraphModel>
  </diagram>
</mxfile>
